<svg width="371" height="129" viewBox="0 0 371 129" fill="none" xmlns="http://www.w3.org/2000/svg">
<g clip-path="url(#clip0_3_2)">
<path d="M110.38 75.7H96.9V89.18H110.38V75.7Z" fill="#014CFF"/>
<path d="M77.33 36.55H57.75V56.13H77.33V36.55Z" fill="#014CFF"/>
<path d="M96.91 56.13H77.33V75.71H96.91V56.13Z" fill="#014CFF"/>
<path d="M107.54 45.49H96.9V56.13H107.54V45.49Z" fill="#014CFF"/>
<path d="M77.33 75.7H61.13V91.9H77.33V75.7Z" fill="#014CFF"/>
<path d="M129.01 75.13C126.53 72.44 125.28 69.02 125.28 64.88C125.28 60.74 126.52 57.32 129.01 54.63C131.49 51.94 134.77 50.6 138.84 50.6C142.19 50.6 145.02 51.53 147.33 53.38C149.65 55.23 151.13 57.72 151.77 60.83H150.17C149.38 60.83 148.7 60.32 148.43 59.58C147.8 57.84 146.75 56.42 145.29 55.31C143.49 53.95 141.34 53.26 138.84 53.26C135.65 53.26 133.08 54.33 131.14 56.46C129.2 58.6 128.23 61.4 128.23 64.88C128.23 68.36 129.2 71.16 131.14 73.3C133.08 75.44 135.65 76.5 138.84 76.5C141.34 76.5 143.49 75.82 145.29 74.45C147.09 73.09 148.26 71.25 148.8 68.93H151.77C151.13 72.04 149.65 74.53 147.33 76.38C145.01 78.23 142.18 79.16 138.84 79.16C134.77 79.16 131.5 77.82 129.01 75.13Z" fill="white"/>
<path d="M158.18 54.07C157.59 54.07 157.11 53.9 156.75 53.55C156.39 53.2 156.21 52.75 156.21 52.18C156.21 51.61 156.39 51.14 156.75 50.77C157.11 50.4 157.59 50.21 158.18 50.21C158.77 50.21 159.22 50.4 159.59 50.77C159.96 51.14 160.15 51.61 160.15 52.18C160.15 52.75 159.96 53.2 159.59 53.55C159.22 53.9 158.75 54.07 158.18 54.07ZM156.79 78.58V58.93H158.04C158.86 58.93 159.53 59.6 159.53 60.42V78.58H156.79Z" fill="white"/>
<path d="M174.28 76V78.47C173.82 78.6 173.12 78.66 172.19 78.66C168.79 78.66 167.09 76.87 167.09 73.29V53.33H169.32C169.6 53.33 169.83 53.56 169.83 53.84V58.93H174.35V59.75C174.35 60.58 173.68 61.25 172.85 61.25H169.83V73.1C169.83 75.16 170.73 76.19 172.53 76.19L174.27 76H174.28Z" fill="white"/>
<path d="M186.32 76V78.47C185.86 78.6 185.16 78.66 184.23 78.66C180.83 78.66 179.13 76.87 179.13 73.29V53.33H180.37C181.2 53.33 181.87 54 181.87 54.83V58.93H186.39V59.75C186.39 60.58 185.72 61.25 184.89 61.25H181.87V73.1C181.87 75.16 182.77 76.19 184.57 76.19L186.31 76H186.32Z" fill="white"/>
<path d="M196.4 79.05C194.11 79.05 192.38 78.53 191.21 77.49C190.04 76.45 189.45 75.01 189.45 73.19C189.45 69.89 191.92 67.92 196.84 67.27L203.73 66.36V65.82C203.73 62.5 201.88 60.84 198.17 60.84C195.03 60.84 193.2 62.14 192.69 64.74H189.95C190.23 62.84 191.05 61.32 192.4 60.18C193.75 59.05 195.71 58.48 198.29 58.48C201.02 58.48 203.06 59.14 204.43 60.47C205.79 61.8 206.48 63.59 206.48 65.86V74.47C206.48 76.4 206.67 77.78 207.06 78.6H205.54C204.79 78.6 204.16 78.04 204.06 77.3C203.98 76.71 203.94 76.03 203.94 75.24C202.45 77.79 199.94 79.06 196.41 79.06L196.4 79.05ZM203.73 68.52L197.21 69.4C195.41 69.63 194.11 70.06 193.33 70.69C192.55 71.32 192.15 72.15 192.15 73.18C192.15 74.47 192.59 75.38 193.46 75.94C194.33 76.49 195.42 76.77 196.7 76.77C198.89 76.77 200.61 76.16 201.85 74.94C203.1 73.72 203.72 72.34 203.72 70.8V68.53L203.73 68.52Z" fill="white"/>
<path d="M218.68 75.22C216.08 72.59 214.78 69.16 214.78 64.91C214.78 60.66 216.08 57.23 218.68 54.6C221.28 51.97 224.57 50.66 228.56 50.66C232.03 50.66 234.99 51.63 237.42 53.56C239.85 55.49 241.33 58.1 241.84 61.4H235.82C235.41 59.7 234.56 58.38 233.27 57.44C231.98 56.5 230.41 56.03 228.56 56.03C226.09 56.03 224.16 56.83 222.79 58.42C221.41 60.02 220.72 62.18 220.72 64.91C220.72 67.64 221.41 69.8 222.79 71.4C224.17 73 226.09 73.79 228.56 73.79C230.41 73.79 231.98 73.32 233.27 72.38C234.56 71.44 235.41 70.12 235.82 68.42H241.84C241.32 71.71 239.85 74.33 237.42 76.26C234.99 78.19 232.03 79.16 228.56 79.16C224.57 79.16 221.28 77.85 218.68 75.22Z" fill="#014CFF"/>
<path d="M258.41 69.93V60.54C258.41 59.37 259.36 58.42 260.53 58.42H263.9V77.16C263.9 77.99 263.23 78.65 262.41 78.65H258.85V76.18C257.79 78.14 255.81 79.11 252.9 79.11C250.53 79.11 248.71 78.38 247.44 76.93C246.17 75.48 245.53 73.51 245.53 71.04V58.42H251.01V70.43C251.01 73.08 252.13 74.41 254.37 74.41C255.71 74.41 256.72 74.02 257.4 73.25C258.08 72.48 258.42 71.37 258.42 69.93H258.41Z" fill="#014CFF"/>
<path d="M274.39 60.59C274.96 59.84 275.76 59.22 276.8 58.72C277.84 58.22 279.03 57.97 280.37 57.97C283.23 57.97 285.49 58.97 287.16 60.98C288.83 62.99 289.67 65.51 289.67 68.55C289.67 71.59 288.83 74.11 287.16 76.12C285.49 78.13 283.22 79.13 280.37 79.13C277.52 79.13 275.3 78.15 273.96 76.2V78.67H270.4C269.57 78.67 268.91 78 268.91 77.18V49.72H274.39V60.61V60.59ZM275.61 64.41C274.7 65.49 274.24 66.87 274.24 68.54C274.24 70.21 274.7 71.59 275.61 72.67C276.52 73.75 277.73 74.29 279.22 74.29C280.71 74.29 281.92 73.75 282.83 72.67C283.74 71.59 284.2 70.21 284.2 68.54C284.2 66.87 283.74 65.49 282.83 64.41C281.92 63.33 280.71 62.79 279.22 62.79C277.73 62.79 276.52 63.33 275.61 64.41Z" fill="#014CFF"/>
<path d="M312.26 70.13H297.59C297.77 71.52 298.29 72.58 299.13 73.31C299.98 74.04 301.1 74.41 302.49 74.41C303.36 74.41 304.16 74.22 304.86 73.85C305.33 73.6 305.72 73.28 306.01 72.87C306.3 72.46 306.73 72.21 307.23 72.21H311.91C311.32 74.27 310.15 75.94 308.42 77.21C306.68 78.48 304.66 79.12 302.34 79.12C299.35 79.12 296.91 78.13 295 76.15C293.09 74.17 292.14 71.62 292.14 68.51C292.14 65.4 293.09 62.99 295 60.98C296.9 58.97 299.34 57.97 302.3 57.97C305.26 57.97 307.67 58.97 309.54 60.96C311.41 62.95 312.34 65.47 312.34 68.51L312.26 70.13ZM302.27 62.37C301.03 62.37 300.02 62.71 299.22 63.39C298.42 64.07 297.91 65.01 297.68 66.19H306.87C306.66 65.03 306.16 64.1 305.36 63.41C304.56 62.72 303.53 62.37 302.27 62.37Z" fill="#014CFF"/>
</g>
<defs>
<clipPath id="clip0_3_2">
<rect width="370.09" height="128.45" fill="white"/>
</clipPath>
</defs>
</svg>
