<?xml version="1.0" encoding="UTF-8"?>
<svg id="Layer_2" data-name="Layer 2" xmlns="http://www.w3.org/2000/svg" viewBox="0 0 370.09 128.45">
  <defs>
    <style>
      .cls-1 {
        fill: none;
      }

      .cls-1, .cls-2, .cls-3 {
        stroke-width: 0px;
      }

      .cls-2 {
        fill: #014cff;
      }

      .cls-3 {
        fill: #160041;
      }
    </style>
  </defs>
  <g id="Layer_1-2" data-name="Layer 1">
    <g>
      <rect class="cls-1" width="370.09" height="128.45"/>
      <g>
        <g>
          <rect class="cls-2" x="96.9" y="75.7" width="13.48" height="13.48"/>
          <rect class="cls-2" x="57.75" y="36.55" width="19.58" height="19.58"/>
          <rect class="cls-2" x="77.33" y="56.13" width="19.58" height="19.58"/>
          <rect class="cls-2" x="96.9" y="45.49" width="10.64" height="10.64"/>
          <rect class="cls-2" x="61.13" y="75.7" width="16.2" height="16.2"/>
        </g>
        <g>
          <g>
            <path class="cls-3" d="M129.01,75.13c-2.48-2.69-3.73-6.11-3.73-10.25s1.24-7.56,3.73-10.25c2.48-2.69,5.76-4.03,9.83-4.03,3.35,0,6.18.93,8.49,2.78,2.32,1.85,3.8,4.34,4.44,7.45h-1.6c-.79,0-1.47-.51-1.74-1.25-.63-1.74-1.68-3.16-3.14-4.27-1.8-1.36-3.95-2.05-6.45-2.05-3.19,0-5.76,1.07-7.7,3.2-1.94,2.14-2.91,4.94-2.91,8.42s.97,6.28,2.91,8.42c1.94,2.14,4.51,3.2,7.7,3.2,2.5,0,4.65-.68,6.45-2.05,1.8-1.36,2.97-3.2,3.51-5.52h2.97c-.64,3.11-2.12,5.6-4.44,7.45-2.32,1.85-5.15,2.78-8.49,2.78-4.07,0-7.34-1.34-9.83-4.03Z"/>
            <path class="cls-3" d="M158.18,54.07c-.59,0-1.07-.17-1.43-.52-.36-.35-.54-.8-.54-1.37s.18-1.04.54-1.41c.36-.37.84-.56,1.43-.56s1.04.19,1.41.56c.37.37.56.84.56,1.41s-.19,1.02-.56,1.37c-.37.35-.84.52-1.41.52ZM156.79,78.58v-19.65h1.25c.82,0,1.49.67,1.49,1.49v18.16h-2.74Z"/>
            <path class="cls-3" d="M174.28,76v2.47c-.46.13-1.16.19-2.09.19-3.4,0-5.1-1.79-5.1-5.37v-19.96h2.23c.28,0,.51.23.51.51v5.09h4.52v.82c0,.83-.67,1.5-1.5,1.5h-3.02v11.85c0,2.06.9,3.09,2.7,3.09l1.74-.19Z"/>
            <path class="cls-3" d="M186.32,76v2.47c-.46.13-1.16.19-2.09.19-3.4,0-5.1-1.79-5.1-5.37v-19.96h1.24c.83,0,1.5.67,1.5,1.5v4.1h4.52v.82c0,.83-.67,1.5-1.5,1.5h-3.02v11.85c0,2.06.9,3.09,2.7,3.09l1.74-.19Z"/>
            <path class="cls-3" d="M196.4,79.05c-2.29,0-4.02-.52-5.19-1.56-1.17-1.04-1.76-2.48-1.76-4.3,0-3.3,2.47-5.27,7.39-5.92l6.89-.91v-.54c0-3.32-1.85-4.98-5.56-4.98-3.14,0-4.97,1.3-5.48,3.9h-2.74c.28-1.9,1.1-3.42,2.45-4.56,1.35-1.13,3.31-1.7,5.89-1.7,2.73,0,4.77.66,6.14,1.99,1.36,1.33,2.05,3.12,2.05,5.39v8.61c0,1.93.19,3.31.58,4.13h-1.52c-.75,0-1.38-.56-1.48-1.3-.08-.59-.12-1.27-.12-2.06-1.49,2.55-4,3.82-7.53,3.82ZM203.73,68.52l-6.52.88c-1.8.23-3.1.66-3.88,1.29s-1.18,1.46-1.18,2.49c0,1.29.44,2.2,1.31,2.76.87.55,1.96.83,3.24.83,2.19,0,3.91-.61,5.15-1.83,1.25-1.22,1.87-2.6,1.87-4.14v-2.27Z"/>
          </g>
          <g>
            <path class="cls-2" d="M218.68,75.22c-2.6-2.63-3.9-6.06-3.9-10.31s1.3-7.68,3.9-10.31,5.89-3.94,9.88-3.94c3.47,0,6.43.97,8.86,2.9,2.43,1.93,3.91,4.54,4.42,7.84h-6.02c-.41-1.7-1.26-3.02-2.55-3.96-1.29-.94-2.86-1.41-4.71-1.41-2.47,0-4.4.8-5.77,2.39-1.38,1.6-2.07,3.76-2.07,6.49s.69,4.89,2.07,6.49c1.38,1.6,3.3,2.39,5.77,2.39,1.85,0,3.42-.47,4.71-1.41,1.29-.94,2.14-2.26,2.55-3.96h6.02c-.52,3.29-1.99,5.91-4.42,7.84-2.43,1.93-5.39,2.9-8.86,2.9-3.99,0-7.28-1.31-9.88-3.94Z"/>
            <path class="cls-2" d="M258.41,69.93v-9.39c0-1.17.95-2.12,2.12-2.12h3.37v18.74c0,.83-.67,1.49-1.49,1.49h-3.56v-2.47c-1.06,1.96-3.04,2.93-5.95,2.93-2.37,0-4.19-.73-5.46-2.18-1.27-1.45-1.91-3.42-1.91-5.89v-12.62h5.48v12.01c0,2.65,1.12,3.98,3.36,3.98,1.34,0,2.35-.39,3.03-1.16s1.02-1.88,1.02-3.32Z"/>
            <path class="cls-2" d="M274.39,60.59c.57-.75,1.37-1.37,2.41-1.87,1.04-.5,2.23-.75,3.57-.75,2.86,0,5.12,1,6.79,3.01,1.67,2.01,2.51,4.53,2.51,7.57s-.84,5.56-2.51,7.57c-1.67,2.01-3.94,3.01-6.79,3.01s-5.07-.98-6.41-2.93v2.47h-3.56c-.83,0-1.49-.67-1.49-1.49v-27.46h5.48v10.89ZM275.61,64.41c-.91,1.08-1.37,2.46-1.37,4.13s.46,3.05,1.37,4.13c.91,1.08,2.12,1.62,3.61,1.62s2.7-.54,3.61-1.62c.91-1.08,1.37-2.46,1.37-4.13s-.46-3.05-1.37-4.13c-.91-1.08-2.12-1.62-3.61-1.62s-2.7.54-3.61,1.62Z"/>
            <path class="cls-2" d="M312.26,70.13h-14.67c.18,1.39.7,2.45,1.54,3.18.85.73,1.97,1.1,3.36,1.1.87,0,1.67-.19,2.37-.56.47-.25.86-.57,1.15-.98s.72-.66,1.22-.66h4.68c-.59,2.06-1.76,3.73-3.49,5-1.74,1.27-3.76,1.91-6.08,1.91-2.99,0-5.43-.99-7.34-2.97-1.91-1.98-2.86-4.53-2.86-7.64s.95-5.52,2.86-7.53c1.9-2.01,4.34-3.01,7.3-3.01s5.37,1,7.24,2.99c1.87,1.99,2.8,4.51,2.8,7.55l-.08,1.62ZM302.27,62.37c-1.24,0-2.25.34-3.05,1.02-.8.68-1.31,1.62-1.54,2.8h9.19c-.21-1.16-.71-2.09-1.51-2.78-.8-.69-1.83-1.04-3.09-1.04Z"/>
          </g>
        </g>
      </g>
    </g>
  </g>
</svg>